HIERARCHY
ROOT Hips
{
	OFFSET 0.00000 0.00000 0.00000
	CHANNELS 6 Xposition Yposition Zposition Zrotation Yrotation Xrotation 
	JOINT LHipJoint
	{
		OFFSET 0 0 0
		CHANNELS 3 Zrotation Yrotation Xrotation
		JOINT LeftUpLeg
		{
			OFFSET 1.65412 -1.54119 0.76744
			CHANNELS 3 Zrotation Yrotation Xrotation
			JOINT LeftLeg
			{
				OFFSET 2.19550 -6.03209 0.00000
				CHANNELS 3 Zrotation Yrotation Xrotation
				JOINT LeftFoot
				{
					OFFSET 2.38814 -6.56138 0.00000
					CHANNELS 3 Zrotation Yrotation Xrotation
					JOINT LeftToeBase
					{
						OFFSET 0.17337 -0.47632 1.75875
						CHANNELS 3 Zrotation Yrotation Xrotation
						End Site
						{
							OFFSET 0.00000 -0.00000 0.92050
						}
					}
				}
			}
		}
	}
	JOINT RHipJoint
	{
		OFFSET 0 0 0
		CHANNELS 3 Zrotation Yrotation Xrotation
		JOINT RightUpLeg
		{
			OFFSET -1.40291 -1.54119 0.76744
			CHANNELS 3 Zrotation Yrotation Xrotation
			JOINT RightLeg
			{
				OFFSET -2.22156 -6.10370 0.00000
				CHANNELS 3 Zrotation Yrotation Xrotation
				JOINT RightFoot
				{
					OFFSET -2.46840 -6.78188 0.00000
					CHANNELS 3 Zrotation Yrotation Xrotation
					JOINT RightToeBase
					{
						OFFSET -0.15659 -0.43024 1.84117
						CHANNELS 3 Zrotation Yrotation Xrotation
						End Site
						{
							OFFSET -0.00000 -0.00000 0.95587
						}
					}
				}
			}
		}
	}
	JOINT LowerBack
	{
		OFFSET 0 0 0
		CHANNELS 3 Zrotation Yrotation Xrotation
		JOINT Spine
		{
			OFFSET -0.01936 1.82120 -0.32061
			CHANNELS 3 Zrotation Yrotation Xrotation
			JOINT Spine1
			{
				OFFSET -0.00532 1.85767 -0.00071
				CHANNELS 3 Zrotation Yrotation Xrotation
				JOINT Neck
				{
					OFFSET 0 0 0
					CHANNELS 3 Zrotation Yrotation Xrotation
					JOINT Neck1
					{
						OFFSET -0.10687 1.58194 0.10810
						CHANNELS 3 Zrotation Yrotation Xrotation
						JOINT Head
						{
							OFFSET 0.15346 1.57382 -0.25612
							CHANNELS 3 Zrotation Yrotation Xrotation
							End Site
							{
								OFFSET 0.05334 1.61251 -0.10513
							}
						}
					}
				}
				JOINT LeftShoulder
				{
					OFFSET 0 0 0
					CHANNELS 3 Zrotation Yrotation Xrotation
					JOINT LeftArm
					{
						OFFSET 2.85758 0.89498 -0.01485
						CHANNELS 3 Zrotation Yrotation Xrotation
						JOINT LeftForeArm
						{
							OFFSET 4.79185 -0.00000 -0.00000
							CHANNELS 3 Zrotation Yrotation Xrotation
							JOINT LeftHand
							{
								OFFSET 2.65553 -0.00000 0.00000
								CHANNELS 3 Zrotation Yrotation Xrotation
								JOINT LeftFingerBase
								{
									OFFSET 0 0 0
									CHANNELS 3 Zrotation Yrotation Xrotation
									JOINT LeftHandIndex1
									{
										OFFSET 0.74390 -0.00000 0.00000
										CHANNELS 3 Zrotation Yrotation Xrotation
										End Site
										{
											OFFSET 0.59975 -0.00000 0.00000
										}
									}
								}
								JOINT LThumb
								{
									OFFSET 0 0 0
									CHANNELS 3 Zrotation Yrotation Xrotation
									End Site
									{
										OFFSET 0.60891 -0.00000 0.60891
									}
								}
							}
						}
					}
				}
				JOINT RightShoulder
				{
					OFFSET 0 0 0
					CHANNELS 3 Zrotation Yrotation Xrotation
					JOINT RightArm
					{
						OFFSET -2.93906 0.88031 0.02490
						CHANNELS 3 Zrotation Yrotation Xrotation
						JOINT RightForeArm
						{
							OFFSET -4.77254 -0.00000 -0.00000
							CHANNELS 3 Zrotation Yrotation Xrotation
							JOINT RightHand
							{
								OFFSET -2.75995 -0.00000 -0.00000
								CHANNELS 3 Zrotation Yrotation Xrotation
								JOINT RightFingerBase
								{
									OFFSET 0 0 0
									CHANNELS 3 Zrotation Yrotation Xrotation
									JOINT RightHandIndex1
									{
										OFFSET -0.70162 -0.00000 0.00000
										CHANNELS 3 Zrotation Yrotation Xrotation
										End Site
										{
											OFFSET -0.56566 -0.00000 0.00000
										}
									}
								}
								JOINT RThumb
								{
									OFFSET 0 0 0
									CHANNELS 3 Zrotation Yrotation Xrotation
									End Site
									{
										OFFSET -0.57430 -0.00000 0.57430
									}
								}
							}
						}
					}
				}
			}
		}
	}
}
MOTION
Frames: 5
Frame Time: .0083333
0.1435 16.1131 0.1103 -1.4142 1.0052 -0.4772 0.0000 0.0000 0.0000 -16.1975 -10.7931 4.8427 0.4131 4.1255 11.4301 0.1414 6.0374 -11.7361 0.4335 -4.2252 -11.7111 0.0000 0.0000 0.0000 19.4906 9.8596 3.9058 -0.6428 -5.1289 14.2767 -0.2463 -7.3280 -14.7832 -0.1041 2.0808 -5.7291 -1.0492 1.1109 8.9979 -0.1754 1.3563 -0.6101 0.2203 0.6969 -5.7091 -13.2149 -9.2405 -10.2499 -1.3953 -10.0028 42.1460 -0.1998 -6.3656 18.2522 0.0000 0.0000 0.0000 -83.0090 1.2511 55.2369 15.0460 -24.2102 -3.2448 -0.0000 0.0000 -4.0958 6.1930 16.1543 1.7292 -7.1250 0.0000 -0.0000 -19.9674 45.2323 -0.1193 0.0000 0.0000 0.0000 51.6524 47.4441 36.4854 -54.9064 54.7924 -30.1395 0.0000 0.0000 39.8427 -16.9443 17.7952 -5.3195 7.1250 -0.0000 -0.0000 7.2661 -11.5452 5.7122
0.1425 16.1124 0.1101 -1.4864 1.0191 -0.4939 0.0000 0.0000 0.0000 -16.1221 -10.8212 4.7988 0.4225 4.1720 11.5612 0.1484 6.0048 -11.8289 0.4227 -4.1727 -11.5632 0.0000 0.0000 0.0000 19.5864 9.8555 3.9684 -0.6366 -5.1049 14.2081 -0.2382 -7.4171 -14.7580 -0.1109 2.1467 -5.9114 -0.9644 1.1190 8.9998 -0.1692 1.3766 -0.6136 0.1762 0.7044 -5.7122 -13.2146 -9.2394 -10.2319 -1.3724 -10.0121 42.1192 -0.1886 -6.3661 18.2336 0.0000 0.0000 0.0000 -82.9521 1.2509 55.3784 15.0749 -24.2503 -3.2566 -0.0000 0.0000 -4.2921 6.1965 16.1534 1.7302 -7.1250 0.0000 -0.0000 -19.9639 45.2318 -0.1191 0.0000 0.0000 0.0000 52.0170 47.3718 38.0781 -55.0846 54.8511 -30.2852 0.0000 0.0000 39.7458 -16.5636 17.9192 -5.2285 7.1250 -0.0000 -0.0000 7.5211 -11.4604 5.9294
0.1412 16.1110 0.1098 -1.5944 1.0462 -0.5146 0.0000 0.0000 0.0000 -15.9935 -10.8147 4.7042 0.4349 4.2319 11.7301 0.1560 5.9024 -11.8604 0.4253 -4.1855 -11.5993 0.0000 0.0000 0.0000 19.7128 9.8103 4.0356 -0.6270 -5.0669 14.0994 -0.2291 -7.4820 -14.6932 -0.1146 2.1823 -6.0098 -0.8680 1.1261 9.0201 -0.1392 1.3980 -0.6241 0.1497 0.7125 -5.7333 -13.1915 -9.2505 -10.2288 -1.4255 -10.0129 42.1249 -0.2169 -6.3697 18.2299 0.0000 0.0000 0.0000 -82.9602 1.2309 55.3430 15.0613 -24.2314 -3.2511 -0.0000 0.0000 -4.4079 6.0498 16.0383 1.6772 -7.1250 0.0000 -0.0000 -20.0504 45.1062 -0.0548 0.0000 0.0000 0.0000 52.5880 47.4501 39.6357 -54.7395 54.7369 -30.0032 0.0000 0.0000 39.8314 -16.3376 17.8387 -5.1313 7.1250 -0.0000 -0.0000 7.6668 -11.5675 6.0293
0.1401 16.1110 0.1096 -1.6669 1.0458 -0.5302 0.0000 0.0000 0.0000 -15.9072 -10.8064 4.6382 0.4431 4.2709 11.8400 0.1603 5.8479 -11.8807 0.4370 -4.2422 -11.7589 0.0000 0.0000 0.0000 19.7975 9.7822 4.0788 -0.6210 -5.0430 14.0313 -0.2274 -7.4829 -14.6690 -0.1141 2.1778 -5.9973 -0.8047 1.1571 9.0300 -0.1157 1.4475 -0.6227 0.1317 0.7353 -5.7369 -13.1833 -9.2686 -10.2489 -1.4432 -10.0313 42.1474 -0.2323 -6.3774 18.2481 -0.0000 -0.0000 0.0000 -83.0050 1.1936 55.2338 15.0427 -24.2055 -3.2434 -0.0000 0.0000 -4.3907 6.0110 16.0456 1.6671 -7.1250 0.0000 -0.0000 -20.0874 45.1085 -0.0561 -0.0000 -0.0000 0.0000 53.1302 47.4616 41.0993 -54.4028 54.6239 -29.7285 0.0000 0.0000 40.0943 -16.4695 17.7317 -5.1449 7.1250 -0.0000 -0.0000 7.5765 -11.6626 5.9420
0.1390 16.1109 0.1104 -1.7397 1.0355 -0.5541 0.0000 0.0000 0.0000 -15.8282 -10.8100 4.6556 0.4453 4.2815 11.8701 0.1601 5.8564 -11.8870 0.4329 -4.2225 -11.7034 0.0000 0.0000 0.0000 19.8875 9.7827 4.1263 -0.6194 -5.0364 14.0125 -0.2331 -7.4484 -14.7171 -0.1019 2.0589 -5.6684 -0.7344 1.1856 9.0007 -0.0943 1.4946 -0.5859 0.1090 0.7566 -5.6809 -13.2013 -9.2853 -10.2648 -1.4112 -10.0606 42.1102 -0.2196 -6.3861 18.2366 0.0000 0.0000 0.0000 -83.0482 1.1144 55.0899 15.0213 -24.1757 -3.2346 -0.0000 0.0000 -4.2348 6.2542 16.1827 1.7495 -7.1250 0.0000 -0.0000 -19.9238 45.2663 -0.1365 0.0000 0.0000 0.0000 53.6623 47.5073 42.5361 -54.0856 54.5160 -29.4700 0.0000 0.0000 40.2272 -16.6571 17.9326 -5.2634 7.1250 -0.0000 -0.0000 7.4600 -11.4363 5.8841
